<svg width="30" height="28" viewBox="0 0 30 28" fill="none" xmlns="http://www.w3.org/2000/svg">
<path d="M7.31805 24.7252H20.5461" stroke="#616161" stroke-linejoin="round"/>
<path d="M13.1935 19.8986L8.77831 22.3321L9.07815 17.5583L18.33 3.43158C18.3536 3.39506 18.3848 3.36325 18.4216 3.33797C18.4584 3.3127 18.5002 3.29445 18.5447 3.28428C18.5891 3.27411 18.6352 3.27221 18.6804 3.27869C18.7255 3.28518 18.7689 3.29992 18.808 3.32207L22.3323 5.35003C22.3714 5.3721 22.4055 5.40116 22.4326 5.43554C22.4597 5.46992 22.4792 5.50895 22.4901 5.55039C22.501 5.59183 22.5031 5.63487 22.4961 5.67705C22.4892 5.71922 22.4734 5.75971 22.4496 5.79618L13.1935 19.8986Z" stroke="#616161" stroke-linecap="round" stroke-linejoin="round"/>
<path d="M16.8568 5.67863L20.9721 8.03106" stroke="#616161" stroke-linecap="round" stroke-linejoin="round"/>
<path d="M9.07808 17.5463L13.1934 19.8987" stroke="#616161" stroke-linecap="round" stroke-linejoin="round"/>
</svg>
